<?xml version="1.0" encoding="utf-8"?>
<!-- Generator: Adobe Illustrator 26.3.1, SVG Export Plug-In . SVG Version: 6.00 Build 0)  -->
<svg version="1.1" xmlns="http://www.w3.org/2000/svg" xmlns:xlink="http://www.w3.org/1999/xlink" x="0px" y="0px" width="405px"
	 height="809px" viewBox="0 0 405 809" style="enable-background:new 0 0 405 809;" xml:space="preserve">
<style type="text/css">
	.st0{display:none;}
	.st1{display:inline;fill:#69C0FF;}
	.st2{display:inline;fill:#D9F7BE;}
	.st3{display:inline;fill:#FFF1F0;}
	.st4{fill:#1D89E4;}
	.st5{fill:#12669E;}
	.st6{fill:#262727;}
</style>
<g id="Layer_1" class="st0">
	<path class="st1" d="M-358.4,358.7l64.5-64.5l0.1-0.1h121.3l-48.3,48.3l-12.5,12.5l-49.4,49.4l6.1,6.1L0.3,687.3l283-283
		l-49.4-49.4l-3.5-3.5l-57.2-57.2h121.3l0.1,0.1l50.5,50.5l59.5,59.5L0.3,808.6L-404,404.3L-358.4,358.7z M0.3,0l233.6,233.6H112.6
		L0.3,121.3L-112,233.6h-121.3L0.3,0z"/>
	<path class="st2" d="M-516.4,358.7l64.5-64.5l0.1-0.1h121.3l-48.3,48.3l-12.5,12.5l-49.4,49.4l6.1,6.1l276.9,276.9l283-283
		l-49.4-49.4l-3.5-3.5l-57.2-57.2h121.3l0.1,0.1l50.5,50.5l59.5,59.5l-404.3,404.3L-562,404.3L-516.4,358.7z M-157.7,0L75.9,233.6
		H-45.4l-112.3-112.3L-270,233.6h-121.3L-157.7,0z"/>
	<path class="st3" d="M-647.4,358.7l64.5-64.5l0.1-0.1h121.3l-48.3,48.3l-12.5,12.5l-49.4,49.4l6.1,6.1l276.9,276.9l283-283
		l-49.4-49.4l-3.5-3.5l-57.2-57.2H5.5l0.1,0.1l50.5,50.5l59.5,59.5l-404.3,404.3L-693,404.3L-647.4,358.7z M-288.7,0l233.6,233.6
		h-121.3l-112.3-112.3L-401,233.6h-121.3L-288.7,0z"/>
</g>
<g id="Layer_2">
	<g>
		<g>
			<g>
				<path class="st4" d="M231,99.5c0,0,29.9,54.5-3.7,57.5l68.4,19.1L231,99.5z"/>
				<g>
					<path class="st5" d="M232.6,660.5c-30.7,15.7-64.5,26-100.3,29.9c-10.3,1.1-20.7,1.7-31.2,1.7
						c-159.8,0-289.3-129.5-289.3-289.3c0-155.9,123.3-283,277.7-289c3.8-0.2,7.7-0.2,11.6-0.2c44.1,0,85.9,9.9,123.3,27.5
						c-13.4-1.8-27.1-2.6-41.1-2.6c-11.2,0-22.2,0.6-33,1.7c-153.5,6.4-275.8,121.6-275.8,262.7c0,145.2,129.5,263,289.3,263
						c11.3,0,22.5-0.6,33.5-1.7C209.2,663.5,221,662.3,232.6,660.5z"/>
					<path class="st4" d="M232.6,660.5c9.2-1.4,18.2-3.3,27.1-5.5c-38.1,20.9-81.3,33.5-127.4,35.3c-3.9,0.2-7.8,0.2-11.7,0.2
						c-159.8,0-289.3-129.5-289.3-289.3c0-149.3,113-272.1,258.2-287.6c10.2-1.1,20.6-1.7,31.1-1.7c50.4,0,97.8,12.9,139.1,35.6
						c-11.5-2.8-23.3-5.1-35.3-6.6c-13.4-1.8-27.1-2.6-41.1-2.6c-11.2,0-22.2,0.6-33,1.7C6.1,154.9-105.9,266.2-105.9,401.3
						c0,145.2,129.5,263,289.3,263c4.7,0,9.3-0.1,13.9-0.3C209.2,663.5,221,662.3,232.6,660.5z"/>
				</g>
			</g>
			<g>
				<path class="st4" d="M169.5,628.4c0,0-30.2-30.6-8.4-38.9l-49,0.3L169.5,628.4z"/>
				<g>
					<path class="st5" d="M62.4,256.1c17.4-16.2,37.9-29.5,60.9-38.8c6.6-2.7,13.4-5,20.4-7c106.1-30.2,216.6,31.3,246.8,137.4
						C420,451.3,362.1,559,260.7,592.2c-2.5,0.8-5.1,1.6-7.6,2.3c-29.3,8.3-58.9,9.7-87.1,5c9.2-1.4,18.5-3.4,27.8-6
						c7.4-2.1,14.6-4.6,21.6-7.4C316.1,553,375.6,453.4,348.9,359.6c-27.4-96.4-135.7-150.2-241.8-120c-7.5,2.1-14.8,4.6-21.9,7.5
						C77.3,249.7,69.7,252.7,62.4,256.1z"/>
					<path class="st4" d="M62.4,256.1c-5.8,2.7-11.5,5.6-17,8.8c21.3-21.1,47.7-37.6,77.9-47.5c2.5-0.8,5.1-1.6,7.7-2.4
						c106.1-30.2,216.6,31.3,246.8,137.4c28.2,99.1-23.6,202.1-117.1,239.8c-6.6,2.7-13.4,5-20.3,7c-33.5,9.5-67.4,9.9-99.1,2.7
						c8.2-0.3,16.4-1,24.7-2.3c9.2-1.4,18.5-3.4,27.8-6c7.4-2.1,14.6-4.6,21.6-7.4c93-37.1,146.4-132.2,120.8-222
						c-27.5-96.5-135.7-150.2-241.8-120c-3.1,0.9-6.2,1.8-9.2,2.8C77.3,249.7,69.7,252.7,62.4,256.1z"/>
				</g>
			</g>
		</g>
		<g>
			<path class="st6" d="M72.1,297.3c-46,0-64,25.2-64,59.9v113.6h30.3v-68.6h32.6c2.2-12.1,7.8-22.1,17.7-28.8H38.5v-16.5
				c0-16.2,8.2-29.3,35.7-29.3h69.9v-30.3H72.1z"/>
			<path class="st6" d="M131.6,495.3c-11.6,0-18.4-4.4-21.4-11.1c-1.3-2.9-1.9-6.2-1.9-9.8v-10.9h72c37.3,0,51.3-15.8,51.3-43.6
				c0-17-5.1-29.9-16.4-37.7c-8.2-5.7-19.6-8.7-34.7-8.7h-49c-27.7,0-43.2,11.4-49.4,28.8c-2.3,6.3-3.4,13.5-3.4,21.1v51.6
				c0,12.3,2.7,23.2,8.9,31.7c8.1,11.3,22.3,18.2,43.9,18.2h92.6v-29.5H131.6z M201.8,421.6c0,11.2-6,18.1-22.4,18.1h-71.1v-16.1
				c0-11.8,6.6-20.9,23.2-20.9h48.7c4.5,0,8.3,0.7,11.3,2C198.6,407.5,201.8,413.6,201.8,421.6z"/>
		</g>
	</g>
</g>
</svg>
