<?xml version="1.0" encoding="utf-8"?>
<!-- Generator: Adobe Illustrator 26.3.1, SVG Export Plug-In . SVG Version: 6.00 Build 0)  -->
<svg version="1.1" id="Layer_1" xmlns="http://www.w3.org/2000/svg" xmlns:xlink="http://www.w3.org/1999/xlink" x="0px" y="0px"
	 width="30px" height="30px" viewBox="0 0 30 30" style="enable-background:new 0 0 30 30;" xml:space="preserve">
<style type="text/css">
	.st0{fill:#1D89E4;}
	.st1{fill:#12669E;}
	.st2{fill:#262727;}
</style>
<g>
	<g>
		<g>
			<path class="st0" d="M21.2,0.5c0,0,1.5,2.7-0.2,2.8l3.3,0.9L21.2,0.5z"/>
			<g>
				<path class="st1" d="M21.2,27.9c-1.5,0.8-3.1,1.3-4.9,1.5c-0.5,0.1-1,0.1-1.5,0.1C7,29.5,0.7,23.1,0.7,15.3
					c0-7.6,6-13.8,13.6-14.1c0.2,0,0.4,0,0.6,0c2.2,0,4.2,0.5,6,1.3c-0.7-0.1-1.3-0.1-2-0.1c-0.5,0-1.1,0-1.6,0.1
					C9.7,2.8,3.7,8.4,3.7,15.3c0,7.1,6.3,12.8,14.1,12.8c0.6,0,1.1,0,1.6-0.1C20.1,28.1,20.7,28,21.2,27.9z"/>
				<path class="st0" d="M21.2,27.9c0.4-0.1,0.9-0.2,1.3-0.3c-1.9,1-4,1.6-6.2,1.7c-0.2,0-0.4,0-0.6,0C8,29.4,1.6,23.1,1.6,15.3
					C1.6,8,7.2,2,14.2,1.2c0.5-0.1,1-0.1,1.5-0.1c2.5,0,4.8,0.6,6.8,1.7c-0.6-0.1-1.1-0.2-1.7-0.3c-0.7-0.1-1.3-0.1-2-0.1
					c-0.5,0-1.1,0-1.6,0.1c-7,0.7-12.5,6.2-12.5,12.8c0,7.1,6.3,12.8,14.1,12.8c0.2,0,0.5,0,0.7,0C20.1,28.1,20.7,28,21.2,27.9z"/>
			</g>
		</g>
		<g>
			<path class="st0" d="M18.1,26.4c0,0-1.5-1.5-0.4-1.9l-2.4,0L18.1,26.4z"/>
			<g>
				<path class="st1" d="M12.9,8.2c0.8-0.8,1.9-1.4,3-1.9c0.3-0.1,0.7-0.2,1-0.3c5.2-1.5,10.6,1.5,12.1,6.7
					c1.4,5.1-1.4,10.3-6.3,11.9c-0.1,0-0.2,0.1-0.4,0.1c-1.4,0.4-2.9,0.5-4.3,0.2c0.5-0.1,0.9-0.2,1.4-0.3c0.4-0.1,0.7-0.2,1.1-0.4
					c4.9-1.6,7.8-6.5,6.5-11.1c-1.3-4.7-6.6-7.3-11.8-5.9c-0.4,0.1-0.7,0.2-1.1,0.4C13.6,7.9,13.3,8,12.9,8.2z"/>
				<path class="st0" d="M12.9,8.2c-0.3,0.1-0.6,0.3-0.8,0.4c1-1,2.3-1.8,3.8-2.3c0.1,0,0.2-0.1,0.4-0.1c5.2-1.5,10.6,1.5,12.1,6.7
					c1.4,4.8-1.2,9.9-5.7,11.7c-0.3,0.1-0.7,0.2-1,0.3c-1.6,0.5-3.3,0.5-4.8,0.1c0.4,0,0.8-0.1,1.2-0.1c0.5-0.1,0.9-0.2,1.4-0.3
					c0.4-0.1,0.7-0.2,1.1-0.4c4.5-1.8,7.1-6.5,5.9-10.8c-1.3-4.7-6.6-7.3-11.8-5.9c-0.2,0-0.3,0.1-0.4,0.1C13.6,7.9,13.3,8,12.9,8.2
					z"/>
			</g>
		</g>
	</g>
	<g>
		<path class="st2" d="M13.4,10.2c-2.2,0-3.1,1.2-3.1,2.9v5.5h1.5v-3.4h1.6c0.1-0.6,0.4-1.1,0.9-1.4h-2.5v-0.8
			c0-0.8,0.4-1.4,1.7-1.4h3.4v-1.5H13.4z"/>
		<path class="st2" d="M16.3,19.9c-0.6,0-0.9-0.2-1-0.5c-0.1-0.1-0.1-0.3-0.1-0.5v-0.5h3.5c1.8,0,2.5-0.8,2.5-2.1
			c0-0.8-0.2-1.5-0.8-1.8c-0.4-0.3-1-0.4-1.7-0.4h-2.4c-1.4,0-2.1,0.6-2.4,1.4c-0.1,0.3-0.2,0.7-0.2,1v2.5c0,0.6,0.1,1.1,0.4,1.5
			c0.4,0.6,1.1,0.9,2.1,0.9h4.5v-1.4H16.3z M19.7,16.3c0,0.5-0.3,0.9-1.1,0.9h-3.5v-0.8c0-0.6,0.3-1,1.1-1h2.4c0.2,0,0.4,0,0.6,0.1
			C19.6,15.6,19.7,15.9,19.7,16.3z"/>
	</g>
</g>
</svg>
