<?xml version="1.0" encoding="utf-8"?>
<!-- Generator: Adobe Illustrator 26.3.1, SVG Export Plug-In . SVG Version: 6.00 Build 0)  -->
<svg version="1.1" id="Layer_1" xmlns="http://www.w3.org/2000/svg" xmlns:xlink="http://www.w3.org/1999/xlink" x="0px" y="0px"
	 width="118px" height="35px" viewBox="0 0 118 35" style="enable-background:new 0 0 118 35;" xml:space="preserve">
<style type="text/css">
	.st0{fill:#262727;}
	.st1{fill:#1D89E4;}
	.st2{fill:#12669E;}
</style>
<g>
	<path class="st0" d="M38.3,20.3H37v-5.6h4.3v1h-2.9V20.3z M38.2,17.2h2.7v1h-2.7V17.2z"/>
	<path class="st0" d="M42.1,20.3v-5.6h1.3v5.6H42.1z"/>
	<path class="st0" d="M44.8,20.3v-5.6h2.4c0.5,0,0.9,0.1,1.3,0.2c0.4,0.2,0.6,0.4,0.8,0.7c0.2,0.3,0.3,0.7,0.3,1.1
		c0,0.4-0.1,0.8-0.3,1.1c-0.2,0.3-0.5,0.5-0.8,0.7c-0.4,0.2-0.8,0.2-1.3,0.2h-1.7l0.6-0.6v2.1H44.8z M46.1,18.3l-0.6-0.6h1.7
		c0.4,0,0.7-0.1,0.9-0.3c0.2-0.2,0.3-0.4,0.3-0.7c0-0.3-0.1-0.6-0.3-0.7c-0.2-0.2-0.5-0.3-0.9-0.3h-1.7l0.6-0.6V18.3z M48.4,20.3
		l-1.4-2h1.4l1.4,2H48.4z"/>
	<path class="st0" d="M53.4,20.4c-0.4,0-0.9-0.1-1.2-0.2c-0.4-0.1-0.7-0.3-1-0.6c-0.3-0.3-0.5-0.6-0.6-0.9c-0.2-0.4-0.2-0.7-0.2-1.2
		c0-0.4,0.1-0.8,0.2-1.2c0.2-0.4,0.4-0.7,0.6-0.9c0.3-0.3,0.6-0.5,1-0.6c0.4-0.1,0.8-0.2,1.2-0.2c0.4,0,0.9,0.1,1.2,0.2
		c0.4,0.1,0.7,0.3,1,0.6c0.3,0.3,0.5,0.6,0.6,0.9c0.2,0.4,0.2,0.7,0.2,1.2c0,0.4-0.1,0.8-0.2,1.2c-0.2,0.4-0.4,0.7-0.6,0.9
		c-0.3,0.3-0.6,0.5-1,0.6C54.3,20.3,53.9,20.4,53.4,20.4z M53.4,19.3c0.3,0,0.5,0,0.7-0.1c0.2-0.1,0.4-0.2,0.6-0.4
		c0.2-0.2,0.3-0.4,0.4-0.6c0.1-0.2,0.1-0.5,0.1-0.7c0-0.3,0-0.5-0.1-0.7c-0.1-0.2-0.2-0.4-0.4-0.6c-0.2-0.2-0.3-0.3-0.6-0.4
		c-0.2-0.1-0.4-0.1-0.7-0.1c-0.3,0-0.5,0-0.7,0.1s-0.4,0.2-0.6,0.4c-0.2,0.2-0.3,0.4-0.4,0.6s-0.1,0.5-0.1,0.7c0,0.3,0,0.5,0.1,0.7
		s0.2,0.4,0.4,0.6s0.3,0.3,0.6,0.4C52.9,19.3,53.2,19.3,53.4,19.3z"/>
	<path class="st0" d="M57.1,20.3v-0.8l3.5-4.2l0.2,0.5h-3.6v-1.1h4.7v0.8l-3.5,4.2l-0.2-0.5H62v1.1H57.1z"/>
	<path class="st0" d="M66.4,19.3h3.1v1h-4.4v-5.6h4.3v1h-3V19.3z M66.3,16.9H69v1h-2.7V16.9z"/>
	<path class="st0" d="M70.5,20.3v-5.6h1.1l3.3,4.1h-0.5v-4.1h1.3v5.6h-1.1l-3.3-4.1h0.5v4.1H70.5z"/>
	<path class="st0" d="M78.2,20.3v-4.6h-1.8v-1.1h4.9v1.1h-1.8v4.6H78.2z"/>
	<path class="st0" d="M83.3,19.3h3.1v1H82v-5.6h4.3v1h-3V19.3z M83.2,16.9h2.7v1h-2.7V16.9z"/>
	<path class="st0" d="M87.4,20.3v-5.6h2.4c0.5,0,0.9,0.1,1.3,0.2c0.4,0.2,0.6,0.4,0.8,0.7c0.2,0.3,0.3,0.7,0.3,1.1
		c0,0.4-0.1,0.8-0.3,1.1c-0.2,0.3-0.5,0.5-0.8,0.7c-0.4,0.2-0.8,0.2-1.3,0.2h-1.7l0.6-0.6v2.1H87.4z M88.7,18.3l-0.6-0.6h1.7
		c0.4,0,0.7-0.1,0.9-0.3c0.2-0.2,0.3-0.4,0.3-0.7c0-0.3-0.1-0.6-0.3-0.7c-0.2-0.2-0.5-0.3-0.9-0.3h-1.7l0.6-0.6V18.3z M91,20.3
		l-1.4-2H91l1.4,2H91z"/>
	<path class="st0" d="M93.3,20.3v-5.6h2.4c0.5,0,0.9,0.1,1.3,0.2c0.4,0.2,0.6,0.4,0.8,0.7c0.2,0.3,0.3,0.7,0.3,1.1
		c0,0.4-0.1,0.8-0.3,1.1c-0.2,0.3-0.5,0.5-0.8,0.7c-0.4,0.2-0.8,0.2-1.3,0.2H94l0.6-0.6v2.1H93.3z M94.6,18.3L94,17.7h1.7
		c0.4,0,0.7-0.1,0.9-0.3c0.2-0.2,0.3-0.4,0.3-0.7c0-0.3-0.1-0.6-0.3-0.7c-0.2-0.2-0.5-0.3-0.9-0.3H94l0.6-0.6V18.3z"/>
	<path class="st0" d="M99.1,20.3v-5.6h2.4c0.5,0,0.9,0.1,1.3,0.2c0.4,0.2,0.6,0.4,0.8,0.7c0.2,0.3,0.3,0.7,0.3,1.1
		c0,0.4-0.1,0.8-0.3,1.1c-0.2,0.3-0.5,0.5-0.8,0.7c-0.4,0.2-0.8,0.2-1.3,0.2h-1.7l0.6-0.6v2.1H99.1z M100.4,18.3l-0.6-0.6h1.7
		c0.4,0,0.7-0.1,0.9-0.3c0.2-0.2,0.3-0.4,0.3-0.7c0-0.3-0.1-0.6-0.3-0.7c-0.2-0.2-0.5-0.3-0.9-0.3h-1.7l0.6-0.6V18.3z M102.7,20.3
		l-1.4-2h1.4l1.4,2H102.7z"/>
	<path class="st0" d="M105,20.3v-5.6h1.3v5.6H105z"/>
	<path class="st0" d="M109.5,20.4c-0.5,0-0.9-0.1-1.3-0.2c-0.4-0.1-0.8-0.3-1-0.5l0.4-1c0.2,0.2,0.5,0.3,0.9,0.4
		c0.3,0.1,0.7,0.2,1,0.2c0.3,0,0.5,0,0.6-0.1c0.2-0.1,0.3-0.1,0.4-0.2c0.1-0.1,0.1-0.2,0.1-0.3c0-0.2-0.1-0.3-0.2-0.4
		c-0.1-0.1-0.3-0.2-0.5-0.2c-0.2-0.1-0.4-0.1-0.6-0.2c-0.2-0.1-0.5-0.1-0.7-0.2c-0.2-0.1-0.4-0.2-0.6-0.3c-0.2-0.1-0.4-0.3-0.5-0.5
		c-0.1-0.2-0.2-0.4-0.2-0.7c0-0.3,0.1-0.6,0.3-0.9c0.2-0.3,0.4-0.5,0.8-0.6c0.4-0.2,0.8-0.2,1.3-0.2c0.4,0,0.7,0,1.1,0.1
		c0.3,0.1,0.6,0.2,0.9,0.4l-0.4,1c-0.3-0.1-0.5-0.3-0.8-0.3c-0.3-0.1-0.5-0.1-0.8-0.1c-0.3,0-0.5,0-0.6,0.1
		c-0.2,0.1-0.3,0.1-0.3,0.2s-0.1,0.2-0.1,0.3c0,0.2,0.1,0.3,0.2,0.4c0.1,0.1,0.3,0.2,0.5,0.2c0.2,0.1,0.4,0.1,0.6,0.2
		c0.2,0.1,0.5,0.1,0.7,0.2c0.2,0.1,0.4,0.2,0.6,0.3c0.2,0.1,0.4,0.3,0.5,0.5c0.1,0.2,0.2,0.4,0.2,0.7c0,0.3-0.1,0.6-0.3,0.9
		c-0.2,0.3-0.4,0.5-0.8,0.6C110.5,20.3,110.1,20.4,109.5,20.4z"/>
	<path class="st0" d="M114.1,19.3h3.1v1h-4.4v-5.6h4.3v1h-3V19.3z M114,16.9h2.7v1H114V16.9z"/>
</g>
<g>
	<g>
		<g>
			<path class="st1" d="M24.8,0.5c0,0,1.7,3.1-0.2,3.3l3.9,1.1L24.8,0.5z"/>
			<g>
				<path class="st2" d="M24.9,32.7c-1.8,0.9-3.7,1.5-5.8,1.7c-0.6,0.1-1.2,0.1-1.8,0.1c-9.2,0-16.6-7.4-16.6-16.6
					c0-9,7.1-16.3,16-16.6c0.2,0,0.4,0,0.7,0c2.5,0,4.9,0.6,7.1,1.6c-0.8-0.1-1.6-0.2-2.4-0.2c-0.6,0-1.3,0-1.9,0.1
					c-8.8,0.4-15.9,7-15.9,15.1C4.3,26.2,11.8,33,21,33c0.7,0,1.3,0,1.9-0.1C23.6,32.9,24.3,32.8,24.9,32.7z"/>
				<path class="st1" d="M24.9,32.7c0.5-0.1,1-0.2,1.6-0.3c-2.2,1.2-4.7,1.9-7.3,2c-0.2,0-0.4,0-0.7,0C9.3,34.4,1.9,27,1.9,17.8
					c0-8.6,6.5-15.6,14.8-16.5c0.6-0.1,1.2-0.1,1.8-0.1c2.9,0,5.6,0.7,8,2c-0.7-0.2-1.3-0.3-2-0.4c-0.8-0.1-1.6-0.2-2.4-0.2
					c-0.6,0-1.3,0-1.9,0.1c-8.3,0.9-14.7,7.3-14.7,15c0,8.3,7.4,15.1,16.6,15.1c0.3,0,0.5,0,0.8,0C23.6,32.9,24.3,32.8,24.9,32.7z"
					/>
			</g>
		</g>
		<g>
			<path class="st1" d="M21.3,30.9c0,0-1.7-1.8-0.5-2.2l-2.8,0L21.3,30.9z"/>
			<g>
				<path class="st2" d="M15.1,9.5c1-0.9,2.2-1.7,3.5-2.2C19,7.1,19.4,7,19.8,6.8c6.1-1.7,12.4,1.8,14.2,7.9
					c1.7,6-1.6,12.1-7.5,14.1c-0.1,0-0.3,0.1-0.4,0.1c-1.7,0.5-3.4,0.6-5,0.3c0.5-0.1,1.1-0.2,1.6-0.3c0.4-0.1,0.8-0.3,1.2-0.4
					c5.8-1.9,9.2-7.6,7.7-13C30,9.9,23.8,6.8,17.7,8.5c-0.4,0.1-0.9,0.3-1.3,0.4C16,9.1,15.6,9.3,15.1,9.5z"/>
				<path class="st1" d="M15.1,9.5c-0.3,0.2-0.7,0.3-1,0.5c1.2-1.2,2.7-2.2,4.5-2.7c0.1,0,0.3-0.1,0.4-0.1
					c6.1-1.7,12.4,1.8,14.2,7.9c1.6,5.7-1.4,11.6-6.7,13.8c-0.4,0.2-0.8,0.3-1.2,0.4c-1.9,0.5-3.9,0.6-5.7,0.2
					c0.5,0,0.9-0.1,1.4-0.1c0.5-0.1,1.1-0.2,1.6-0.3c0.4-0.1,0.8-0.3,1.2-0.4c5.3-2.1,8.4-7.6,6.9-12.8c-1.6-5.5-7.8-8.6-13.9-6.9
					c-0.2,0.1-0.4,0.1-0.5,0.2C16,9.1,15.6,9.3,15.1,9.5z"/>
			</g>
		</g>
	</g>
	<g>
		<path class="st0" d="M15.7,11.8c-2.6,0-3.7,1.4-3.7,3.4v6.5h1.7v-3.9h1.9c0.1-0.7,0.4-1.3,1-1.7h-2.9v-0.9c0-0.9,0.5-1.7,2.1-1.7
			h4v-1.7H15.7z"/>
		<path class="st0" d="M19.1,23.2c-0.7,0-1.1-0.3-1.2-0.6c-0.1-0.2-0.1-0.4-0.1-0.6v-0.6h4.1c2.1,0,3-0.9,3-2.5c0-1-0.3-1.7-0.9-2.2
			c-0.5-0.3-1.1-0.5-2-0.5h-2.8c-1.6,0-2.5,0.7-2.8,1.7c-0.1,0.4-0.2,0.8-0.2,1.2v3c0,0.7,0.2,1.3,0.5,1.8c0.5,0.6,1.3,1,2.5,1h5.3
			v-1.7H19.1z M23.2,19c0,0.6-0.3,1-1.3,1h-4.1v-0.9c0-0.7,0.4-1.2,1.3-1.2h2.8c0.3,0,0.5,0,0.7,0.1C23,18.2,23.2,18.5,23.2,19z"/>
	</g>
</g>
</svg>
